# xmcd
#
# Track frame offsets: 
#        150
#        17935
#        40359
#        60360
#        79544
#        98713
#        122527
#        144390
#        164443
#        182779
#        197437
#        214803
#        236446
#
# Disc length: 3426 seconds
#
# Revision: 0
# Processed by: cddbd v1.5.2PL0 Copyright (c) Steve Scherf et al.
# Submitted via: ExactAudioCopyFreeDBPlugin 1.0
#
DISCID=a60d600d
DTITLE=童丽VS廖寰 - 对着唱
DYEAR=2011
DGENRE=Pop
TTITLE0=微山湖
TTITLE1=月之故乡
TTITLE2=茶山情歌
TTITLE3=赤脚医生向阳花
TTITLE4=庭院深深
TTITLE5=世上哪有树缠藤
TTITLE6=月光小夜曲
TTITLE7=绒花
TTITLE8=就是溜溜的她
TTITLE9=山歌姻缘
TTITLE10=毛主席的话儿记心上
TTITLE11=心想唱歌就唱歌
TTITLE12=几度花落时
EXTD=
EXTT0=
EXTT1=
EXTT2=
EXTT3=
EXTT4=
EXTT5=
EXTT6=
EXTT7=
EXTT8=
EXTT9=
EXTT10=
EXTT11=
EXTT12=
PLAYORDER=
